<mxfile host="app.diagrams.net" modified="2023-04-14T02:50:03.262Z" agent="Mozilla/5.0 (Macintosh; Intel Mac OS X 10_15_7) AppleWebKit/537.36 (KHTML, like Gecko) Chrome/111.0.0.0 Safari/537.36" etag="r0Q07dYyy9q52lv7gg4x" version="21.1.4" type="device">
  <diagram id="C5RBs43oDa-KdzZeNtuy" name="Page-1">
    <mxGraphModel dx="2190" dy="1946" grid="1" gridSize="10" guides="1" tooltips="1" connect="1" arrows="1" fold="1" page="1" pageScale="1" pageWidth="827" pageHeight="1169" math="0" shadow="0">
      <root>
        <mxCell id="WIyWlLk6GJQsqaUBKTNV-0" />
        <mxCell id="WIyWlLk6GJQsqaUBKTNV-1" parent="WIyWlLk6GJQsqaUBKTNV-0" />
        <mxCell id="WIyWlLk6GJQsqaUBKTNV-2" value="" style="rounded=0;html=1;jettySize=auto;orthogonalLoop=1;fontSize=11;endArrow=block;endFill=0;endSize=8;strokeWidth=1;shadow=0;labelBackgroundColor=none;edgeStyle=orthogonalEdgeStyle;" parent="WIyWlLk6GJQsqaUBKTNV-1" source="WIyWlLk6GJQsqaUBKTNV-3" target="WIyWlLk6GJQsqaUBKTNV-6" edge="1">
          <mxGeometry relative="1" as="geometry" />
        </mxCell>
        <mxCell id="WIyWlLk6GJQsqaUBKTNV-3" value="사용자에 의한 정보 입력" style="rounded=1;whiteSpace=wrap;html=1;fontSize=12;glass=0;strokeWidth=1;shadow=0;" parent="WIyWlLk6GJQsqaUBKTNV-1" vertex="1">
          <mxGeometry x="137.5" y="-120" width="155" height="90" as="geometry" />
        </mxCell>
        <mxCell id="WIyWlLk6GJQsqaUBKTNV-4" value="Yes" style="rounded=0;html=1;jettySize=auto;orthogonalLoop=1;fontSize=11;endArrow=block;endFill=0;endSize=8;strokeWidth=1;shadow=0;labelBackgroundColor=none;edgeStyle=orthogonalEdgeStyle;entryX=0.5;entryY=0;entryDx=0;entryDy=0;" parent="WIyWlLk6GJQsqaUBKTNV-1" source="WIyWlLk6GJQsqaUBKTNV-6" target="vg4RQz4-aD2GBLrpC-8c-4" edge="1">
          <mxGeometry y="20" relative="1" as="geometry">
            <mxPoint as="offset" />
            <mxPoint x="215" y="350" as="targetPoint" />
          </mxGeometry>
        </mxCell>
        <mxCell id="WIyWlLk6GJQsqaUBKTNV-5" value="No" style="edgeStyle=orthogonalEdgeStyle;rounded=0;html=1;jettySize=auto;orthogonalLoop=1;fontSize=11;endArrow=block;endFill=0;endSize=8;strokeWidth=1;shadow=0;labelBackgroundColor=none;entryX=1;entryY=0.5;entryDx=0;entryDy=0;exitX=1;exitY=0.5;exitDx=0;exitDy=0;" parent="WIyWlLk6GJQsqaUBKTNV-1" source="WIyWlLk6GJQsqaUBKTNV-6" target="WIyWlLk6GJQsqaUBKTNV-3" edge="1">
          <mxGeometry y="10" relative="1" as="geometry">
            <mxPoint as="offset" />
          </mxGeometry>
        </mxCell>
        <mxCell id="WIyWlLk6GJQsqaUBKTNV-6" value="입력한 정보를 토대로 ETL 환경을 구축할 수 있는가?" style="rhombus;whiteSpace=wrap;html=1;shadow=0;fontFamily=Helvetica;fontSize=12;align=center;strokeWidth=1;spacing=6;spacingTop=-4;" parent="WIyWlLk6GJQsqaUBKTNV-1" vertex="1">
          <mxGeometry x="60" y="100" width="310" height="190" as="geometry" />
        </mxCell>
        <mxCell id="vg4RQz4-aD2GBLrpC-8c-3" value="&lt;h1&gt;환경 구축을 위한 조건&lt;/h1&gt;&lt;p&gt;1. 사용자의 입력을 토대로 연결 할 수 있는가?&amp;nbsp;&lt;br&gt;&lt;span style=&quot;white-space: pre;&quot;&gt;	&lt;/span&gt;[ex] ping을 통한 확인, ssh 접속 여부, 추가, user 권한 등&lt;br&gt;&lt;/p&gt;&lt;p&gt;2. 설치를 위한 네트워크 속도가 보장되어졌는가?&lt;br&gt;&lt;span style=&quot;white-space: pre;&quot;&gt;	&lt;/span&gt;[ex] 공식 홈페이지를 통한 설치 파일 다운로드, 또는 application 내의 파일을 전달 할 수 있는 권장 네트워크 속도가 되는가?&lt;br&gt;&lt;span style=&quot;background-color: initial;&quot;&gt;&lt;br&gt;3. 현 application이 지원할 수 있는 computing 환경인가?&lt;br&gt;&lt;/span&gt;&lt;span style=&quot;white-space: pre;&quot;&gt;	&lt;/span&gt;[ex] VM, docker container, 또는 cloud 환경 (aws ec2, gcp compute instance 등)&lt;br&gt;&lt;br&gt;4. 타겟이 되는 computing 환경의 자원이 수집 agent를 감당할 수 있는가?&lt;br&gt;&lt;span style=&quot;white-space: pre;&quot;&gt;	&lt;/span&gt;[ex] 메모리 자원, cpu 자원 권장 사양을 맞추었는가?&lt;br&gt;&lt;/p&gt;&lt;p&gt;&lt;br&gt;&lt;/p&gt;" style="text;html=1;strokeColor=none;fillColor=none;spacing=5;spacingTop=-20;whiteSpace=wrap;overflow=hidden;rounded=0;" vertex="1" parent="WIyWlLk6GJQsqaUBKTNV-1">
          <mxGeometry x="-592" y="80" width="642" height="240" as="geometry" />
        </mxCell>
        <mxCell id="vg4RQz4-aD2GBLrpC-8c-4" value="연결 정보를 DB에 저장" style="rounded=1;whiteSpace=wrap;html=1;fontSize=12;glass=0;strokeWidth=1;shadow=0;" vertex="1" parent="WIyWlLk6GJQsqaUBKTNV-1">
          <mxGeometry x="110" y="370" width="210" height="90" as="geometry" />
        </mxCell>
        <mxCell id="vg4RQz4-aD2GBLrpC-8c-5" value="연결정보가 잘 저장되었는가?" style="rhombus;whiteSpace=wrap;html=1;shadow=0;fontFamily=Helvetica;fontSize=12;align=center;strokeWidth=1;spacing=6;spacingTop=-4;" vertex="1" parent="WIyWlLk6GJQsqaUBKTNV-1">
          <mxGeometry x="60" y="560" width="310" height="190" as="geometry" />
        </mxCell>
        <mxCell id="vg4RQz4-aD2GBLrpC-8c-6" value="Yes" style="rounded=0;html=1;jettySize=auto;orthogonalLoop=1;fontSize=11;endArrow=block;endFill=0;endSize=8;strokeWidth=1;shadow=0;labelBackgroundColor=none;edgeStyle=orthogonalEdgeStyle;" edge="1" parent="WIyWlLk6GJQsqaUBKTNV-1" target="vg4RQz4-aD2GBLrpC-8c-5">
          <mxGeometry y="20" relative="1" as="geometry">
            <mxPoint as="offset" />
            <mxPoint x="215" y="460" as="sourcePoint" />
            <mxPoint x="225" y="380" as="targetPoint" />
          </mxGeometry>
        </mxCell>
        <mxCell id="vg4RQz4-aD2GBLrpC-8c-7" value="사용자에 의한 No" style="edgeStyle=orthogonalEdgeStyle;rounded=0;html=1;jettySize=auto;orthogonalLoop=1;fontSize=11;endArrow=block;endFill=0;endSize=8;strokeWidth=1;shadow=0;labelBackgroundColor=none;entryX=1;entryY=0.5;entryDx=0;entryDy=0;exitX=1;exitY=0.5;exitDx=0;exitDy=0;" edge="1" parent="WIyWlLk6GJQsqaUBKTNV-1" source="vg4RQz4-aD2GBLrpC-8c-5" target="WIyWlLk6GJQsqaUBKTNV-3">
          <mxGeometry x="-0.0403" y="-70" relative="1" as="geometry">
            <mxPoint y="-1" as="offset" />
            <mxPoint x="380" y="205" as="sourcePoint" />
            <mxPoint x="303" y="-65" as="targetPoint" />
            <Array as="points">
              <mxPoint x="430" y="655" />
              <mxPoint x="430" y="-75" />
            </Array>
          </mxGeometry>
        </mxCell>
        <mxCell id="vg4RQz4-aD2GBLrpC-8c-8" value="&lt;h1&gt;연결 정보가 잘 저장 되었는지를 확인하는 기준&lt;/h1&gt;&lt;div&gt;1. 사용자에 의해 확인&amp;nbsp;&lt;/div&gt;&lt;div&gt;&lt;span style=&quot;white-space: pre;&quot;&gt;	&lt;/span&gt;[ex] 저장되어진 연결정보를 사용자에게 보여줌으로써 재확인&lt;br&gt;&lt;/div&gt;&lt;div&gt;&lt;br&gt;&lt;/div&gt;&lt;div&gt;2. database 저장 시 에러 발생 여부&lt;br&gt;&lt;span style=&quot;white-space: pre;&quot;&gt;	&lt;/span&gt;[ex] database를 통해 저장 시 에러가 발생한다면 잘못된 저장 정보 기준&lt;br&gt;&lt;br&gt;&lt;br&gt;&lt;/div&gt;" style="text;html=1;strokeColor=none;fillColor=none;spacing=5;spacingTop=-20;whiteSpace=wrap;overflow=hidden;rounded=0;" vertex="1" parent="WIyWlLk6GJQsqaUBKTNV-1">
          <mxGeometry x="-592" y="585" width="520" height="160" as="geometry" />
        </mxCell>
        <mxCell id="vg4RQz4-aD2GBLrpC-8c-9" value="DBMS에 의한 No" style="edgeStyle=orthogonalEdgeStyle;rounded=0;html=1;jettySize=auto;orthogonalLoop=1;fontSize=11;endArrow=block;endFill=0;endSize=8;strokeWidth=1;shadow=0;labelBackgroundColor=none;entryX=1;entryY=0.5;entryDx=0;entryDy=0;exitX=1;exitY=0.5;exitDx=0;exitDy=0;" edge="1" parent="WIyWlLk6GJQsqaUBKTNV-1" source="vg4RQz4-aD2GBLrpC-8c-5" target="vg4RQz4-aD2GBLrpC-8c-4">
          <mxGeometry x="-0.0481" y="-50" relative="1" as="geometry">
            <mxPoint as="offset" />
            <mxPoint x="380" y="665" as="sourcePoint" />
            <mxPoint x="303" y="-65" as="targetPoint" />
            <Array as="points">
              <mxPoint x="370" y="665" />
              <mxPoint x="520" y="665" />
              <mxPoint x="520" y="410" />
              <mxPoint x="320" y="410" />
            </Array>
          </mxGeometry>
        </mxCell>
        <mxCell id="vg4RQz4-aD2GBLrpC-8c-10" value="저장 완료 확인을 사용자에게 출력하고&lt;br&gt;종료" style="rounded=1;whiteSpace=wrap;html=1;fontSize=12;glass=0;strokeWidth=1;shadow=0;" vertex="1" parent="WIyWlLk6GJQsqaUBKTNV-1">
          <mxGeometry x="109" y="843" width="210" height="90" as="geometry" />
        </mxCell>
        <mxCell id="vg4RQz4-aD2GBLrpC-8c-12" value="Yes" style="rounded=0;html=1;jettySize=auto;orthogonalLoop=1;fontSize=11;endArrow=block;endFill=0;endSize=8;strokeWidth=1;shadow=0;labelBackgroundColor=none;edgeStyle=orthogonalEdgeStyle;exitX=0.5;exitY=1;exitDx=0;exitDy=0;" edge="1" parent="WIyWlLk6GJQsqaUBKTNV-1" source="vg4RQz4-aD2GBLrpC-8c-5" target="vg4RQz4-aD2GBLrpC-8c-10">
          <mxGeometry y="20" relative="1" as="geometry">
            <mxPoint as="offset" />
            <mxPoint x="225" y="470" as="sourcePoint" />
            <mxPoint x="220" y="830" as="targetPoint" />
          </mxGeometry>
        </mxCell>
      </root>
    </mxGraphModel>
  </diagram>
</mxfile>
